<svg xmlns="http://www.w3.org/2000/svg" width="192" height="192" fill="none">
<path fill="#000" fill-rule="evenodd" d="M96 192C149.019 192 192 149.019 192 96C192 42.9807 149.019 0 96 0C42.9807 0 0 42.9807 0 96C0 149.019 42.9807 192 96 192ZM114.464 101.524C113.633 103.441 112.425 106.961 111.276 110.962C112.686 109.149 119.254 97.62 119.905 95.4191C118.012 94.7209 116.142 93.9612 114.18 93.1646C110.702 91.7519 106.937 90.2231 102.259 88.7152C105.701 92.713 109.907 94.1696 112.96 95.227C114.428 95.7355 115.63 96.1517 116.352 96.7138C116.041 97.7225 115.608 98.7646 114.94 100.373C114.793 100.727 114.635 101.109 114.464 101.524ZM77.4859 145.417C105.39 154.799 137.782 142.902 149.062 115.255L149.819 115.319C156.579 115.887 163.185 116.442 168.382 116.442C168.628 113.431 163.966 111.3 159.21 109.126C156.667 107.963 154.096 106.788 152.235 105.46C155.483 90.8672 151.896 75.8889 142.453 63.7642C120.788 35.9473 77.2263 33.9725 52.9152 59.2587L24.3916 46.2761C25.3464 47.7862 33.3938 55.8928 35.0187 56.6828C37.4003 57.8406 40.4799 59.2585 43.8724 60.8205C45.6357 61.6324 47.4835 62.4832 49.3618 63.3566C48.7068 64.1959 48.0597 65.0728 47.4314 65.9752C43.1636 64.2555 39.4762 62.9104 37.3609 62.5479C38.488 63.716 39.5555 64.7412 40.527 65.6741C41.7176 66.8175 42.7639 67.8223 43.5989 68.7819C44.1016 69.0463 44.6107 69.3035 45.1243 69.5555C43.5913 72.1395 42.2991 74.7995 41.4652 77.2943C31.7562 106.342 49.0345 135.851 77.4859 145.417ZM150.46 107.786C149.809 106.341 148.31 105.546 145.68 106.048C145.237 107.338 145.4 107.477 147.118 107.751C148.442 107.962 149.48 108.111 150.46 107.786ZM151.933 105.238C151.085 104.596 150.407 103.918 149.979 103.188C149.429 102.945 148.772 102.668 147.98 102.348C147.537 102.169 147.023 101.954 146.464 101.719C144.06 100.711 140.803 99.3454 138.626 98.9528C137.053 105.289 135.717 107.583 134.502 109.667C133.756 110.947 133.056 112.147 132.376 114.156C137.467 114.295 143.237 114.766 148.938 115.245C133.925 147.552 90.0591 155.268 63.1519 132.319C47.9561 119.358 41.491 98.8064 48.8088 79.9104C48.9005 79.6737 48.9902 79.4421 49.0784 79.2147C49.7059 79.8798 50.0237 79.9678 51.1951 80.2923C51.7904 80.4571 52.606 80.683 53.7946 81.0767C55.0915 81.5062 56.4063 81.9373 57.7328 82.3721C68.9762 86.0578 81.0521 90.0164 90.0256 95.6607L52.976 84.8186C54.2176 87.8376 57.2595 89.9605 60.4583 91.6887C63.5302 93.348 68.5515 94.8768 73.7646 96.464C81.4868 98.8151 89.6301 101.294 92.4827 104.516C87.1666 103.502 82.1181 101.874 77.0426 100.237C70.9265 98.2643 64.771 96.2791 58.0604 95.3405C58.3735 96.277 59.0791 97.0636 59.7196 97.7776C59.8668 97.9416 60.0105 98.1018 60.1452 98.2591C62.4486 100.947 69.5396 103.306 75.0463 105.138C76.8288 105.731 78.4453 106.269 79.6797 106.745C82.8271 107.959 84.7789 109.029 86.7115 110.576C83.8964 110.162 80.5585 109.384 77.132 108.586C72.2267 107.442 67.1397 106.257 63.1445 106.035C63.1459 107.841 64.1351 110.686 65.1126 113.497C65.8032 115.483 66.488 117.453 66.8143 119.027L71.7268 120.878C69.2961 121.255 66.4825 120.943 63.7498 120.64C61.6783 120.41 59.6532 120.186 57.8767 120.27C60.9094 120.965 64.5292 122.006 68.4838 123.143C82.2757 127.11 100.141 132.247 111.384 127.953C111.744 126.361 111.838 125 111.925 123.754C112.12 120.959 112.274 118.745 115.291 115.815C118.819 112.387 123.466 112.622 129.718 113.911C131.712 111.787 134.687 105.239 135.402 102.108C135.508 101.643 135.607 101.226 135.697 100.849C136.389 97.9397 136.518 97.4017 134.805 95.8965C133.943 95.138 133.342 94.4605 132.816 93.8683C131.853 92.7828 131.145 91.9839 129.544 91.4988C129.81 91.9061 130.094 92.216 130.346 92.491C130.786 92.9724 131.129 93.3466 131.106 93.9485C131.022 93.9713 130.97 93.9953 130.925 94.0158C130.803 94.0719 130.74 94.1007 130.237 94.0018C129.239 93.8054 128.305 92.7409 127.469 91.7877C126.977 91.2276 126.519 90.706 126.102 90.4215L125.188 92.1537L59.5141 62.2621C73.2808 47.8722 95.1428 42.86 114.511 48.5791C138.992 55.8079 156.136 79.0052 152.021 104.71C151.992 104.887 151.963 105.063 151.933 105.238ZM136.818 111.647C137.05 109.927 138.88 104.192 140.004 103.233C140.401 106.088 138.173 111.116 136.818 111.647ZM56.7268 69.8525C63.4574 72.704 69.9775 75.4663 73.1857 76.2377C73.0042 76.0677 72.9405 76.0073 72.8728 75.9518C72.7995 75.8916 72.7216 75.8371 72.484 75.6547C69.0973 73.0552 62.727 69.7334 55.9357 66.4613C55.3582 67.2237 54.8005 68.0065 54.2649 68.8105C55.0849 69.1569 55.9074 69.5053 56.7268 69.8525ZM58.751 75.0662C56.4904 74.2418 54.2317 73.4182 52.0151 72.5484C51.4085 73.6807 50.906 74.7497 50.4301 75.8581L82.2359 86.9115C75.8036 81.2844 67.2631 78.1701 58.751 75.0662Z" clip-rule="evenodd"/>
</svg>
