<svg width="224" height="35" viewBox="0 0 224 35" fill="none" xmlns="http://www.w3.org/2000/svg">
<g clip-path="url(#clip0_1_41)">
<path d="M38.3661 7.26916C40.1851 9.61085 41.3381 12.2783 41.7589 15.0531C42.1737 17.7877 41.8773 20.6264 40.8067 23.3603C39.151 28.0359 35.7045 31.4266 31.5224 33.3042C27.1478 35.2683 21.968 35.5761 17.1921 33.9661C12.4753 32.376 8.70051 29.0996 6.54608 25.0145C4.46401 21.0665 3.89497 16.3634 5.45075 11.6966C5.75688 10.7782 6.25112 9.79288 6.83319 8.852C7.47335 7.81723 8.21993 6.83544 8.93935 6.05542C9.63714 5.29887 10.3867 4.61352 11.1785 3.99911C14.8514 1.14877 19.4253 -0.167418 23.9359 0.0169884C28.4469 0.201407 32.8951 1.88652 36.3161 5.03873C37.0496 5.71453 37.7361 6.45813 38.3661 7.26918V7.26916ZM41.5764 15.0805C41.1603 12.3363 40.0198 9.69803 38.2204 7.38162C37.5974 6.57959 36.9179 5.84368 36.1914 5.17425C32.8032 2.05239 28.3973 0.383496 23.9287 0.200803C19.4598 0.0180968 14.9288 1.32165 11.291 4.14472C10.508 4.75233 9.76618 5.43068 9.07496 6.18015C8.36227 6.95285 7.6231 7.92479 6.98972 8.94861C6.41443 9.87853 5.92654 10.8506 5.62531 11.7542C4.08635 16.3706 4.64937 21.0231 6.7091 24.9287C8.84206 28.9732 12.5798 32.2171 17.2505 33.7916C21.9822 35.3867 27.1138 35.0819 31.4474 33.1362C35.5856 31.2783 38.9957 27.9235 40.6334 23.2977L40.6345 23.2949C41.6934 20.5915 41.9865 17.7845 41.5765 15.0805L41.5764 15.0805Z" fill="#F3F3F3"/>
<path d="M51.6508 16.0282L48.4751 32.5754H64.5805C65.3263 32.5754 66.0513 32.3791 66.7556 31.9808C67.4548 31.5886 68.0884 31.0553 68.6452 30.3934C69.2073 29.7255 69.6894 28.9463 70.1031 28.0464C70.5144 27.1513 70.8107 26.2262 70.9917 25.2825L72.9798 14.9238C73.6459 11.4528 71.7346 8.95068 69.4687 8.95068H53.0093L52.0741 13.8219H66.6705L64.4712 25.2825H56.3953L58.1714 16.0282H51.6508H51.6508Z" fill="#F3F3F3"/>
<path d="M212.075 14.052L208.943 32.0979H213.888L216.166 18.9737H218.67L218.385 20.6141H223.33L223.615 18.9737C223.875 17.4766 223.783 16.2787 223.339 15.3869C222.895 14.495 222.034 14.052 220.762 14.052H212.075Z" fill="#F3F3F3"/>
<path d="M193.462 14.2866L192.608 19.2083H204.099L202.716 27.1763H195.468L195.753 25.5359H201.764L202.577 20.8487H196.007C194.98 20.8487 194.1 21.0832 193.376 21.5451C192.648 22.0075 192.06 22.6518 191.618 23.4722C191.171 24.2926 190.849 25.269 190.654 26.3954C190.358 28.1009 190.483 29.4745 191.018 30.5227C191.558 31.5705 192.566 32.098 194.054 32.098H206.812L209.049 19.2083C209.308 17.7175 209.215 16.526 208.776 15.6341C208.337 14.7359 207.478 14.2866 206.191 14.2866H193.462L193.462 14.2866Z" fill="#F3F3F3"/>
<path d="M180.805 7.96484L179.708 14.2865H178.441L177.587 19.2082H178.854L177.471 27.1762C177.212 28.667 177.3 29.8585 177.739 30.7504C178.177 31.6486 179.042 32.0979 180.324 32.0979H181.561H187.488L188.343 27.1762H182.416L183.799 19.2082H189.725L190.58 14.2865H184.653L185.75 7.96484H180.805H180.805Z" fill="#F3F3F3"/>
<path d="M149.21 32.0979H166.619C169.558 32.0979 172.806 30.0914 173.655 25.1975H150.408L149.21 32.0979Z" fill="#F3F3F3"/>
<path d="M156.639 22.8539H174.062C174.24 21.8254 174.272 20.8625 174.164 19.9698C174.057 19.0787 173.803 18.281 173.402 17.5741C173.002 16.8688 172.476 16.3195 171.826 15.9337C171.171 15.5449 170.413 15.3545 169.554 15.3545H152.117C151.94 16.3699 151.912 17.3412 152.035 18.2579C152.158 19.1767 152.417 19.9731 152.802 20.6536C153.187 21.3332 153.707 21.8695 154.355 22.2616C155.008 22.6567 155.77 22.8539 156.639 22.8539Z" fill="#F3F3F3"/>
<path d="M159.118 8.57046C156.152 8.57046 153.378 8.0825 152.523 13.0109H175.093L175.863 8.57046H159.118Z" fill="#F3F3F3"/>
<path d="M142.175 8.31982H146.778L142.139 32.3805H137.536L142.175 8.31982Z" fill="#F3F3F3"/>
<path d="M123.73 14.2974L122.767 19.294H133.452L131.892 27.3837H125.153L125.474 25.7183H131.063L131.98 20.9594H125.87C124.916 20.9594 124.09 21.1972 123.401 21.6668C122.707 22.1359 122.139 22.7904 121.699 23.6231C121.256 24.4558 120.923 25.4472 120.703 26.5908C120.369 28.3224 120.438 29.7167 120.899 30.7811C121.366 31.8451 122.285 32.3804 123.669 32.3804H135.532L138.054 19.294C138.346 17.7804 138.301 16.5707 137.923 15.6653C137.546 14.7535 136.762 14.2974 135.566 14.2974H123.73H123.73Z" fill="#F3F3F3"/>
<path d="M112.093 8.31982L110.94 14.2975H109.762L108.799 19.2942H109.977L108.417 27.3839C108.126 28.8975 108.167 30.1068 108.544 31.0126C108.921 31.9244 109.71 32.3805 110.902 32.3805H112.052H117.564L118.527 27.3839H113.016L114.575 19.2942H120.086L121.05 14.2975H115.538L116.691 8.31984H112.093V8.31982Z" fill="#F3F3F3"/>
<path d="M94.1162 32.3804L96.639 19.294H102.228L99.7054 32.3804H104.317L106.84 19.294C107.132 17.7804 107.091 16.5707 106.708 15.6653C106.332 14.7535 105.548 14.2974 104.351 14.2974H93.0041L89.5181 32.3804H94.1162V32.3804Z" fill="#F3F3F3"/>
<path d="M85.6742 20.9595H80.1035L79.1862 25.7183H88.8938L90.1322 19.294C90.424 17.7804 90.3789 16.5707 90.0008 15.6653C89.6244 14.7535 88.8353 14.2974 87.6438 14.2974H79.0637C77.8675 14.2974 76.9074 14.7535 76.1792 15.6653C75.4474 16.5707 74.9402 17.7804 74.6484 19.294L73.0889 27.3837C72.7971 28.8974 72.838 30.1067 73.2206 31.0125C73.5973 31.9243 74.3814 32.3804 75.5776 32.3804H87.6094L88.5727 27.3838H77.687L79.2465 19.294H85.9953L85.6742 20.9595V20.9595Z" fill="#F3F3F3"/>
<path fill-rule="evenodd" clip-rule="evenodd" d="M28.1812 22.674C28.5538 21.373 28.9456 20.2281 29.2152 19.6047C29.5227 18.8572 29.7045 18.4408 29.8274 18.0406C29.1065 17.4777 26.9098 17.3648 25.2564 15.4394C27.6296 16.2064 29.2777 16.9899 30.9798 17.6195C30.7687 18.3353 28.6386 22.0846 28.1812 22.674ZM40.4369 24.0701C36.7783 33.061 26.2719 36.9298 17.2213 33.8788C7.99316 30.7679 2.38894 21.1718 5.53807 11.7254C5.80853 10.9141 6.22765 10.049 6.72488 9.2087C6.55829 9.12676 6.39318 9.04312 6.23012 8.95715C5.73828 8.39044 5.02044 7.77525 4.20681 6.92983C4.89291 7.04773 6.08892 7.48515 7.47317 8.04441C7.67698 7.75093 7.88687 7.46578 8.09929 7.19282C6.31794 6.36231 4.62109 5.59473 3.44713 5.02252C2.92009 4.76562 0.309922 2.12933 0.000244141 1.63827L9.25186 5.8602C17.1371 -2.36287 31.2664 -1.72066 38.2933 7.32537C41.3561 11.2683 42.5198 16.1393 41.4663 20.8848C43.198 22.1245 46.8256 22.9534 46.7035 24.4561C44.9547 24.4561 42.7143 24.2618 40.4368 24.0701H40.4369ZM39.3401 21.076C40.1931 20.9127 40.6794 21.1714 40.8905 21.6413C40.5726 21.7468 40.236 21.6986 39.8065 21.6298C39.2492 21.5407 39.1964 21.4955 39.3401 21.076ZM40.7346 20.146C40.8732 20.3834 41.0931 20.6039 41.3683 20.8125C41.378 20.7557 41.3875 20.6985 41.3966 20.6411C42.7315 12.2817 37.1709 4.73801 29.2304 2.38718C22.9484 0.527346 15.8574 2.1573 11.3922 6.83691L32.6936 16.5576L32.9901 15.9943C33.3556 16.2443 33.8172 17.0573 34.3311 17.1587C34.5537 17.2025 34.5106 17.1692 34.613 17.1413C34.6246 16.8338 34.3438 16.7091 34.1065 16.3447C34.9086 16.5885 35.0201 17.0761 35.8129 17.7748C36.4402 18.3278 36.3059 18.4793 36.0063 19.7947C35.7744 20.813 34.8094 22.9425 34.1627 23.6331C32.1348 23.214 30.6278 23.1375 29.4832 24.2524C28.0688 25.63 28.5948 26.5209 28.216 28.1996C23.5238 29.9965 15.2753 26.7149 10.8611 25.7011C12.1974 25.6374 13.9674 26.1142 15.3534 25.8989L13.76 25.2968C13.5044 24.0603 12.5705 22.0742 12.5697 21.0717C14.7707 21.1944 17.9935 22.221 20.2137 22.5487C19.5868 22.0453 18.9538 21.6974 17.9329 21.3028C16.2955 20.6699 12.5858 19.7 11.5969 18.5431C11.363 18.2693 11.0456 17.9685 10.9207 17.594C14.9036 18.1525 18.2835 19.8508 22.0855 20.5779C20.5357 18.8229 14.1707 17.7453 11.6985 16.4064C10.6609 15.8444 9.67429 15.1541 9.27156 14.1723L21.2886 17.6981C18.0347 15.6461 13.523 14.2791 9.5371 12.9554C8.39281 12.5754 8.31433 12.6761 8.0074 12.3499C7.97878 12.4238 7.94968 12.4992 7.91996 12.5761C5.54641 18.7211 7.64336 25.4046 12.5721 29.6193C21.2995 37.0823 35.5273 34.5733 40.3967 24.0668C38.5478 23.9112 36.6762 23.7581 35.0249 23.7127C35.6051 21.9954 36.229 22.094 37.052 18.7687C37.9228 18.9261 39.3253 19.5643 40.086 19.8728C40.3428 19.977 40.5561 20.0669 40.7346 20.146L40.7346 20.146ZM36.4656 22.897C36.5408 22.3375 37.1345 20.4726 37.4992 20.1607C37.6279 21.0892 36.9052 22.7243 36.4656 22.897ZM15.8266 11.3818C14.6593 11.1004 12.1404 10.0043 9.68963 8.96644C9.86335 8.70498 10.0442 8.45043 10.2315 8.20249C12.4343 9.26658 14.5005 10.3468 15.599 11.1922C15.7471 11.3062 15.7039 11.2665 15.8266 11.3818H15.8266ZM8.95992 10.182C12.386 11.5299 16.1216 12.5369 18.762 14.8529L8.44581 11.2583C8.60017 10.8979 8.76315 10.5502 8.95993 10.182H8.95992Z" fill="#F3F3F3"/>
</g>
<defs>
<clipPath id="clip0_1_41">
<rect width="223.788" height="35" fill="white"/>
</clipPath>
</defs>
</svg>
